# xmcd CD database file
#
# Track frame offsets:
#	150
#	13185
#	27140
#	42317
#	58492
#	79325
#	98340
#	136272
#	155287
#	172425
#	189382
#
# Disc length: 2748 seconds
#
# Revision: 2
# Processed by: cddbd v1.5.2PL0 Copyright (c) Steve Scherf et al.
# Submitted via: CDex 1.51
#
DISCID=8f0aba0b
DTITLE=Bennie Smith - Shook Up
DYEAR=2001
DGENRE=Blues
TTITLE0=Wish Me Well
TTITLE1=Buddah-Ba
TTITLE2=Good Morning Little Schoolgirl
TTITLE3=Listen to My Heart Sing
TTITLE4=Mystery Train
TTITLE5=Fancy
TTITLE6=Drown in My Own Tears
TTITLE7=Shook Up
TTITLE8=I'm Tore Up
TTITLE9=Okie Dokie Stomp
TTITLE10=I'm Wondering
EXTD=YEAR: 2001
EXTT0=
EXTT1=
EXTT2=
EXTT3=
EXTT4=
EXTT5=
EXTT6=
EXTT7=
EXTT8=
EXTT9=
EXTT10=
PLAYORDER=
